<svg id="Layer_1" data-name="Layer 1" xmlns="http://www.w3.org/2000/svg" viewBox="0 0 399.37 292.46"><defs><style>.cls-1{fill:#083e48;}.cls-2{fill:#28a1ad;}.cls-3{fill:#5f6468;}</style></defs><path class="cls-1" d="M198.7,46.58l14.48,28.81a22.1,22.1,0,0,0-29,0Z"/><path class="cls-2" d="M119.51,86.41l65.54,33a50.28,50.28,0,0,1,0-65.9Z"/><path class="cls-2" d="M277.88,86.41l-65.54,33a50.25,50.25,0,0,0,0-65.9Z"/><path class="cls-1" d="M198.7,126.24,184.21,97.43a22.1,22.1,0,0,0,29,0Z"/><path class="cls-3" d="M119.89,245.81A10.21,10.21,0,0,1,115,244.7a10.47,10.47,0,0,1-3.46-3l2.1-1.77a9.29,9.29,0,0,0,2.79,2.53,7.17,7.17,0,0,0,3.61.87,5.6,5.6,0,0,0,3.89-1.22,4.24,4.24,0,0,0,1.34-3.27,3.36,3.36,0,0,0-1-2.62,7.66,7.66,0,0,0-3.36-1.46l-1.94-.44a11.21,11.21,0,0,1-5-2.26,5.37,5.37,0,0,1-1.72-4.27,6.42,6.42,0,0,1,.58-2.79,5.64,5.64,0,0,1,1.61-2,7.55,7.55,0,0,1,2.49-1.24,11.33,11.33,0,0,1,3.18-.42,10.07,10.07,0,0,1,4.6,1,9,9,0,0,1,3.25,2.89l-2.14,1.57a7.34,7.34,0,0,0-2.38-2.14,6.93,6.93,0,0,0-3.47-.79,6,6,0,0,0-3.59,1,3.4,3.4,0,0,0-1.31,2.91,3.07,3.07,0,0,0,1.11,2.57,8.61,8.61,0,0,0,3.35,1.37l1.93.45a10,10,0,0,1,5.07,2.38,5.82,5.82,0,0,1,1.57,4.25,7.39,7.39,0,0,1-.57,3,6.08,6.08,0,0,1-1.61,2.25,7.52,7.52,0,0,1-2.57,1.43A11,11,0,0,1,119.89,245.81Z"/><path class="cls-3" d="M134.06,223.74a1.62,1.62,0,0,1-1.27-.43,1.56,1.56,0,0,1-.39-1.1v-.44a1.58,1.58,0,0,1,.39-1.11,1.66,1.66,0,0,1,1.27-.42,1.68,1.68,0,0,1,1.28.42,1.58,1.58,0,0,1,.39,1.11v.44a1.56,1.56,0,0,1-.39,1.1A1.65,1.65,0,0,1,134.06,223.74Zm-1.36,4.11h2.72V245.4H132.7Z"/><path class="cls-3" d="M152.42,242.57h-.13a5.36,5.36,0,0,1-5.14,3.24,6.7,6.7,0,0,1-3-.65,6.45,6.45,0,0,1-2.26-1.84,8.22,8.22,0,0,1-1.42-2.89,14.73,14.73,0,0,1,0-7.61,8.22,8.22,0,0,1,1.42-2.89,6.45,6.45,0,0,1,2.26-1.84,6.7,6.7,0,0,1,3-.65,6,6,0,0,1,3.15.8,5,5,0,0,1,2,2.44h.13V220.24h2.72V245.4h-2.72Zm-4.52.82a6.27,6.27,0,0,0,1.75-.24,4.35,4.35,0,0,0,1.45-.7,3.52,3.52,0,0,0,1-1.13,3.24,3.24,0,0,0,.35-1.52v-6.56a2.77,2.77,0,0,0-.35-1.35,3.42,3.42,0,0,0-1-1.07,4.77,4.77,0,0,0-1.45-.7,5.62,5.62,0,0,0-1.75-.26,4.69,4.69,0,0,0-3.64,1.45,5.45,5.45,0,0,0-1.32,3.81v3a5.45,5.45,0,0,0,1.32,3.81A4.69,4.69,0,0,0,147.9,243.39Z"/><path class="cls-3" d="M167.52,245.81a7.89,7.89,0,0,1-3.25-.65,7.05,7.05,0,0,1-2.48-1.85,8.71,8.71,0,0,1-1.6-2.89,13.07,13.07,0,0,1,0-7.57,8.71,8.71,0,0,1,1.6-2.91,7.05,7.05,0,0,1,2.48-1.85,7.89,7.89,0,0,1,3.25-.65,7.44,7.44,0,0,1,3.16.65,7,7,0,0,1,2.38,1.78,7.77,7.77,0,0,1,1.51,2.69,10.66,10.66,0,0,1,.53,3.42v1.29H162.49v.82a6.19,6.19,0,0,0,.35,2.09,5.12,5.12,0,0,0,1,1.68,4.7,4.7,0,0,0,1.63,1.12,5.68,5.68,0,0,0,2.2.41,5.37,5.37,0,0,0,2.91-.78,5.2,5.2,0,0,0,1.92-2.25l1.93,1.41a6.71,6.71,0,0,1-2.65,2.92A8,8,0,0,1,167.52,245.81Zm0-16.09a5.15,5.15,0,0,0-2,.39,4.63,4.63,0,0,0-1.58,1.1,5,5,0,0,0-1,1.67,5.78,5.78,0,0,0-.37,2.11v.24h9.69v-.37a5.31,5.31,0,0,0-1.28-3.73A4.34,4.34,0,0,0,167.52,229.72Z"/><path class="cls-3" d="M179.38,236.52V233.6h8.88v2.92Z"/><path class="cls-3" d="M193.77,245.4V221.67h9.45a6.42,6.42,0,0,1,4.91,1.81,8.08,8.08,0,0,1,0,10,6.43,6.43,0,0,1-4.91,1.82h-6.6V245.4Zm2.85-12.65h6.6a3.67,3.67,0,0,0,2.63-.89,3.24,3.24,0,0,0,.94-2.51v-1.77a3.24,3.24,0,0,0-.94-2.51,3.67,3.67,0,0,0-2.63-.89h-6.6Z"/><path class="cls-3" d="M220.05,245.81a7.9,7.9,0,0,1-3.23-.65,7,7,0,0,1-2.5-1.85,8.92,8.92,0,0,1-1.62-2.89,12.64,12.64,0,0,1,0-7.57,8.92,8.92,0,0,1,1.62-2.91,7,7,0,0,1,2.5-1.85,7.9,7.9,0,0,1,3.23-.65,7.77,7.77,0,0,1,3.21.65,7.22,7.22,0,0,1,2.5,1.85,8.59,8.59,0,0,1,1.63,2.91,12.64,12.64,0,0,1,0,7.57,8.59,8.59,0,0,1-1.63,2.89,7.22,7.22,0,0,1-2.5,1.85A7.77,7.77,0,0,1,220.05,245.81Zm0-2.42a4.93,4.93,0,0,0,3.6-1.36,5.56,5.56,0,0,0,1.39-4.15v-2.51a5.56,5.56,0,0,0-1.39-4.15,5.46,5.46,0,0,0-7.21,0,5.56,5.56,0,0,0-1.39,4.15v2.51a5.56,5.56,0,0,0,1.39,4.15A4.93,4.93,0,0,0,220.05,243.39Z"/><path class="cls-3" d="M230.45,227.85h2.65l1.87,7.59,1.87,7.68h.07l2.14-7.68,2.21-7.59h2.42l2.27,7.59,2.18,7.68h.07l1.8-7.68,1.9-7.59h2.55L249.8,245.4h-3.37L244,237l-1.53-5.33h-.06l-1.5,5.33-2.45,8.44h-3.3Z"/><path class="cls-3" d="M264.83,245.81a7.86,7.86,0,0,1-3.25-.65,7,7,0,0,1-2.48-1.85,8.37,8.37,0,0,1-1.6-2.89,13.07,13.07,0,0,1,0-7.57,8.37,8.37,0,0,1,1.6-2.91,7,7,0,0,1,2.48-1.85,7.86,7.86,0,0,1,3.25-.65,7.47,7.47,0,0,1,3.16.65,7,7,0,0,1,2.38,1.78,7.77,7.77,0,0,1,1.51,2.69,10.66,10.66,0,0,1,.53,3.42v1.29H259.79v.82a6,6,0,0,0,.36,2.09,5.12,5.12,0,0,0,1,1.68A4.61,4.61,0,0,0,262.8,243a5.68,5.68,0,0,0,2.2.41,5.33,5.33,0,0,0,2.9-.78,5.07,5.07,0,0,0,1.92-2.25l1.94,1.41a6.77,6.77,0,0,1-2.65,2.92A8,8,0,0,1,264.83,245.81Zm0-16.09a5.15,5.15,0,0,0-2,.39,4.68,4.68,0,0,0-1.59,1.1,5.16,5.16,0,0,0-1,1.67,5.78,5.78,0,0,0-.38,2.11v.24h9.69v-.37a5.31,5.31,0,0,0-1.27-3.73A4.34,4.34,0,0,0,264.83,229.72Z"/><path class="cls-3" d="M276.9,245.4V227.85h2.72v3.23h.17a5.06,5.06,0,0,1,5.06-3.23h1.06v2.72h-1.6a6.07,6.07,0,0,0-3.45.84,2.44,2.44,0,0,0-1.24,2.09v11.9Z"/><path class="cls-1" d="M45.26,194.82c-.7-.79-1.1-1.26-1.34-1.59L50.46,190c3.27,4,7.14,6.08,12.21,6.08,5.94,0,9-2.94,9-7.41,0-3.6-1.87-5.67-7.27-6.74l-4.14-.73c-9-1.67-13.61-5.87-13.61-13.28,0-8.27,6.41-13.34,16.28-13.34,7,0,12.14,2.54,15.74,7.14,0,0-5.69,2.83-6.52,3.23a12.84,12.84,0,0,0-9.62-3.7c-5.34,0-8.41,2.2-8.41,6.27,0,3.87,2.41,5.54,7.41,6.54l4.14.87c9.27,1.8,13.47,5.93,13.47,13.34,0,8.67-6.2,14.48-16.88,14.48C54.47,202.7,49.92,200,45.26,194.82Z"/><path class="cls-1" d="M88.24,201.9V155.33h7.54v39.9h19v6.67Z"/><path class="cls-1" d="M122.48,201.9V155.33h29.83V162H130V175h20.22v6.67H130v13.61h22.29v6.67Z"/><path class="cls-1" d="M160.06,201.9v-6.14h6.34V161.47h-6.34v-6.14h20.29v6.14h-6.41v34.29h6.41v6.14Z"/><path class="cls-1" d="M189.83,201.9V155.33h20c8.54,0,13.55,5.54,13.55,14s-5,14-13.55,14H197.37V201.9Zm7.54-25.15h12c3.8,0,6.07-2.07,6.07-5.81v-3.2c0-3.73-2.27-5.8-6.07-5.8h-12Z"/><path class="cls-1" d="M244.22,176.15l-5.13-9.88h-.2V201.9h-7.21V155.33h8.41l15.21,25.75,5.14,9.88h.2V155.33h7.2V201.9h-8.41Z"/><path class="cls-1" d="M279.34,201.9V155.33h29.82V162H286.88V175h20.21v6.67H286.88v13.61h22.28v6.67Z"/><path class="cls-1" d="M326.46,201.9h-7.54V155.33H339c8.34,0,13.47,5.41,13.47,14,0,6.6-3.13,11.21-9.07,12.94l10.08,19.62h-8.41l-9.34-18.82h-9.27Zm12-25.15c3.8,0,6.07-2.07,6.07-5.81v-3.2c0-3.73-2.27-5.8-6.07-5.8h-12v14.81Z"/></svg>